<svg width="66" height="73" viewBox="0 0 66 73" fill="none" xmlns="http://www.w3.org/2000/svg">
<path fill-rule="evenodd" clip-rule="evenodd" d="M65.5128 54.1473C65.5124 54.327 65.4949 54.5062 65.4604 54.6826C65.5393 55.089 65.5274 55.5079 65.4255 55.9091C65.3236 56.3104 65.1342 56.6842 64.8709 57.0037C64.6076 57.3232 64.2768 57.5805 63.9024 57.7571C63.528 57.9338 63.1191 58.0255 62.7051 58.0256H10.2949C9.68035 58.0256 9.07185 58.1467 8.50411 58.3818C7.93637 58.617 7.42051 58.9617 6.98597 59.3962C6.55144 59.8308 6.20676 60.3466 5.97159 60.9144C5.73642 61.4821 5.61538 62.0906 5.61538 62.7051C5.61538 63.3196 5.73642 63.9281 5.97159 64.4959C6.20676 65.0636 6.55144 65.5795 6.98597 66.014C7.42051 66.4486 7.93637 66.7932 8.50411 67.0284C9.07185 67.2636 9.68035 67.3846 10.2949 67.3846H62.7051C63.4498 67.3846 64.1639 67.6804 64.6905 68.207C65.217 68.7335 65.5128 69.4477 65.5128 70.1923C65.5128 70.937 65.217 71.6511 64.6905 72.1776C64.1639 72.7042 63.4498 73 62.7051 73H10.2949C7.5645 73 4.94596 71.9154 3.0153 69.9847C1.08463 68.054 0 65.4355 0 62.7051V10.2949C0 7.5645 1.08463 4.94596 3.0153 3.0153C4.94596 1.08464 7.5645 0 10.2949 0H60.459C63.2517 0 65.5128 2.26113 65.5128 5.05385V54.1473ZM21.5256 14.9744C20.781 14.9744 20.0668 15.2702 19.5403 15.7967C19.0138 16.3233 18.7179 17.0374 18.7179 17.7821C18.7179 18.5267 19.0138 19.2408 19.5403 19.7674C20.0668 20.2939 20.781 20.5897 21.5256 20.5897H43.9872C44.7318 20.5897 45.446 20.2939 45.9725 19.7674C46.4991 19.2408 46.7949 18.5267 46.7949 17.7821C46.7949 17.0374 46.4991 16.3233 45.9725 15.7967C45.446 15.2702 44.7318 14.9744 43.9872 14.9744H21.5256Z" fill="#6D6963"/>
</svg>
