<svg width="74" height="83" viewBox="0 0 74 83" fill="none" xmlns="http://www.w3.org/2000/svg">
<path d="M53.2223 13.1111H61.3334C63.4846 13.1111 65.5477 13.9657 67.0689 15.4868C68.59 17.0079 69.4445 19.071 69.4445 21.2222V29.3333H4.55566V21.2222C4.55566 19.071 5.41022 17.0079 6.93135 15.4868C8.45248 13.9657 10.5156 13.1111 12.6668 13.1111H20.7779M53.2223 13.1111V5M53.2223 13.1111H20.7779M20.7779 13.1111V5M4.55566 31.3611V69.8889C4.55566 72.0401 5.41022 74.1032 6.93135 75.6243C8.45248 77.1454 10.5156 78 12.6668 78H61.3334C63.4846 78 65.5477 77.1454 67.0689 75.6243C68.59 74.1032 69.4445 72.0401 69.4445 69.8889V31.3611" stroke="#6D6963" stroke-width="8.11111" stroke-linecap="round" stroke-linejoin="round"/>
</svg>
