<svg width="87" height="74" viewBox="0 0 87 74" fill="none" xmlns="http://www.w3.org/2000/svg">
<path d="M13.6667 34.221L1.96185 27.3942C0.638739 26.6225 0.638681 24.7108 1.96174 23.939L41.9923 0.58785C42.615 0.224594 43.385 0.224593 44.0077 0.587849L86.0077 25.0878C86.6222 25.4463 87 26.1041 87 26.8154V54.8333C87 55.9379 86.1046 56.8333 85 56.8333H81.6667C80.5621 56.8333 79.6667 55.9379 79.6667 54.8333V29.9457L72.3333 34.221V57.998C72.3333 58.4567 72.1757 58.9014 71.8868 59.2577L71.5157 59.7153C68.0816 63.9711 63.7377 67.4034 58.8031 69.76C53.8684 72.1166 48.4685 73.3376 43 73.3333C37.5315 73.3376 32.1316 72.1166 27.1969 69.76C22.2623 67.4034 17.9184 63.9711 14.4843 59.7153L14.1132 59.2577C13.8243 58.9014 13.6667 58.4567 13.6667 57.998V34.221ZM21 38.5V56.0707C23.7497 59.1955 27.1345 61.6976 30.9283 63.4098C34.7221 65.1221 38.8377 66.0052 43 66C47.1624 66.0054 51.278 65.1225 55.0718 63.4102C58.8657 61.6979 62.2505 59.1956 65 56.0707V38.5L44.0077 50.7455C43.385 51.1087 42.615 51.1087 41.9923 50.7455L21 38.5ZM13.5567 25.6667L43 42.845L72.4433 25.6667L43 8.48833L13.5567 25.6667Z" fill="#6D6963"/>
</svg>
